<?xml version="1.0" encoding="utf-8"?>
<!-- Generator: Adobe Illustrator 15.0.2, SVG Export Plug-In . SVG Version: 6.00 Build 0)  -->
<!DOCTYPE svg PUBLIC "-//W3C//DTD SVG 1.1//EN" "http://www.w3.org/Graphics/SVG/1.1/DTD/svg11.dtd">
<svg version="1.1" id="Layer_1" xmlns="http://www.w3.org/2000/svg" xmlns:xlink="http://www.w3.org/1999/xlink" x="0px" y="0px"
	 width="612px" height="792px" viewBox="0 0 612 792" enable-background="new 0 0 612 792" xml:space="preserve">
<polygon fill="#CB2027" points="551.665,179.944 11.665,179.944 9.665,8.647 549.665,8.647 "/>
<g>
	<path fill="#FFFFFF" d="M46.479,67.542H61.6c15.697,0,26.21,11.737,26.21,27.218c0,15.265-10.801,27.074-26.282,27.074H46.479
		V67.542z M57.063,112.617h1.728c13.033,0,18.074-7.201,18.074-17.93c0-11.809-6.048-17.929-18.074-17.929h-1.728V112.617z"/>
	<path fill="#FFFFFF" d="M167.872,104.553h0.144l10.801-37.731h6.265l11.232,37.731h0.145l10.656-37.011h11.09l-18.361,55.373
		h-7.777l-10.801-35.499h-0.145l-10.225,35.499h-7.776l-17.282-55.373h11.089L167.872,104.553z"/>
	<path fill="#FFFFFF" d="M425.367,67.767H433l28.586,37.947h0.145V69.208h10.585v55.373h-7.633l-28.587-37.947h-0.144V123.5h-10.585
		V67.767z"/>
	<path fill="#FFFFFF" d="M307.384,81.16c-2.017-2.736-4.608-4.464-8.137-4.464c-3.385,0-6.625,2.592-6.625,6.121
		c0,9.145,21.53,5.329,21.53,23.546c0,10.873-6.769,18.578-17.857,18.578c-7.489,0-12.961-4.32-16.706-10.585l6.84-6.696
		c1.44,4.176,5.257,7.92,9.793,7.92c4.32,0,6.984-3.672,6.984-7.849c0-5.616-5.185-7.201-9.433-8.856
		c-6.984-2.88-12.097-6.409-12.097-14.833c0-9,6.697-16.273,15.841-16.273c4.824,0,11.521,2.376,14.834,6.049L307.384,81.16z"/>
	<path fill="#FFFFFF" d="M344.958,124.94c-16.562,0-26.858-12.673-26.858-28.658c0-16.129,10.657-28.515,26.858-28.515
		s26.858,12.385,26.858,28.515C371.816,112.267,361.52,124.94,344.958,124.94z M344.958,78.208
		c-10.009,0-15.913,8.857-15.913,17.642c0,8.353,4.176,18.649,15.913,18.649s15.913-10.297,15.913-18.649
		C360.871,87.065,354.967,78.208,344.958,78.208z"/>
	<polygon fill="#FFFFFF" points="261.97,69.042 261.97,105.548 261.825,105.548 233.239,67.601 225.606,67.601 225.606,123.334 
		225.618,123.334 225.618,147.978 216.923,147.98 231.181,164.981 245.257,148.004 236.202,148.009 236.202,117.591 236.19,117.591 
		236.19,86.467 236.335,86.467 264.921,124.414 272.554,124.414 272.554,69.042 	"/>
	<path fill="#FFFFFF" d="M478.163,69.208h15.121c15.697,0,26.21,11.737,26.21,27.218c0,15.265-10.801,27.074-26.282,27.074h-15.049
		V69.208z M488.748,114.283h1.728c13.033,0,18.074-7.201,18.074-17.93c0-11.809-6.049-17.929-18.074-17.929h-1.728V114.283z"/>
	<g>
		<path fill="#FFFFFF" d="M377.601,68.437h10.585v30.386c0,6.697,0.576,16.129,9.576,16.129c9.001,0,9.577-9.433,9.577-16.129
			V68.437h10.585v32.475c0,13.249-5.616,23.258-20.162,23.258c-14.545,0-20.161-10.009-20.161-23.258V68.437z"/>
	</g>
	<path fill="#FFFFFF" d="M120.148,122.812c-16.562,0-26.858-12.673-26.858-28.658c0-16.129,10.657-28.515,26.858-28.515
		s26.858,12.385,26.858,28.515C147.006,110.139,136.709,122.812,120.148,122.812z M120.148,76.08
		c-10.009,0-15.913,8.857-15.913,17.642c0,8.353,4.176,18.649,15.913,18.649s15.913-10.297,15.913-18.649
		C136.061,84.937,130.157,76.08,120.148,76.08z"/>
</g>
<rect x="75" y="252.981" fill="#CB2027" width="414" height="187.296"/>
<g>
	<path fill="#FFFFFF" d="M102.146,274.833h15.122c15.697,0,26.21,11.737,26.21,27.218c0,15.265-10.801,27.074-26.282,27.074h-15.049
		V274.833z M112.73,319.909h1.728c13.033,0,18.074-7.201,18.074-17.93c0-11.809-6.048-17.929-18.074-17.929h-1.728V319.909z"/>
	<path fill="#FFFFFF" d="M223.539,311.844h0.144l10.801-37.731h6.265l11.232,37.731h0.145l10.656-37.011h11.09l-18.361,55.373
		h-7.777l-10.801-35.499h-0.145l-10.225,35.499h-7.776l-17.282-55.373h11.089L223.539,311.844z"/>
	<path fill="#FFFFFF" d="M368.367,336.726H376l28.586,37.947h0.145v-36.507h10.585v55.373h-7.633l-28.587-37.947h-0.144v36.867
		h-10.585V336.726z"/>
	<path fill="#FFFFFF" d="M250.384,350.119c-2.017-2.736-4.608-4.464-8.137-4.464c-3.385,0-6.625,2.592-6.625,6.121
		c0,9.145,21.53,5.329,21.53,23.546c0,10.873-6.769,18.578-17.857,18.578c-7.489,0-12.961-4.32-16.706-10.585l6.84-6.696
		c1.44,4.176,5.257,7.92,9.793,7.92c4.32,0,6.984-3.672,6.984-7.849c0-5.616-5.185-7.201-9.433-8.856
		c-6.984-2.88-12.097-6.409-12.097-14.833c0-9,6.697-16.273,15.841-16.273c4.824,0,11.521,2.376,14.834,6.049L250.384,350.119z"/>
	<path fill="#FFFFFF" d="M286.958,393.898c-16.562,0-26.858-12.673-26.858-28.658c0-16.129,10.657-28.515,26.858-28.515
		s26.858,12.385,26.858,28.515C313.816,381.226,303.52,393.898,286.958,393.898z M286.958,347.167
		c-10.009,0-15.913,8.857-15.913,17.642c0,8.353,4.176,18.649,15.913,18.649s15.913-10.297,15.913-18.649
		C302.871,356.023,296.967,347.167,286.958,347.167z"/>
	<polygon fill="#FFFFFF" points="317.637,276.333 317.637,312.84 317.492,312.84 288.906,274.893 281.273,274.893 281.273,330.625 
		281.285,330.625 281.285,406.27 272.59,406.271 286.848,423.273 300.924,406.295 291.869,406.301 291.869,375.883 291.857,324.883 
		291.857,293.758 292.002,293.758 320.588,331.706 328.221,331.706 328.221,276.333 	"/>
	<path fill="#FFFFFF" d="M421.163,338.166h15.121c15.697,0,26.21,11.737,26.21,27.218c0,15.265-10.801,27.074-26.282,27.074h-15.049
		V338.166z M431.748,383.242h1.728c13.033,0,18.074-7.201,18.074-17.93c0-11.809-6.049-17.929-18.074-17.929h-1.728V383.242z"/>
	<g>
		<path fill="#FFFFFF" d="M319.601,337.396h10.585v30.386c0,6.697,0.576,16.129,9.576,16.129c9.001,0,9.577-9.433,9.577-16.129
			v-30.386h10.585v32.475c0,13.249-5.616,23.258-20.162,23.258c-14.545,0-20.161-10.009-20.161-23.258V337.396z"/>
	</g>
	<path fill="#FFFFFF" d="M175.815,330.104c-16.562,0-26.858-12.673-26.858-28.658c0-16.129,10.657-28.515,26.858-28.515
		s26.858,12.385,26.858,28.515C202.673,317.431,192.376,330.104,175.815,330.104z M175.815,283.372
		c-10.009,0-15.913,8.857-15.913,17.642c0,8.353,4.176,18.649,15.913,18.649s15.913-10.297,15.913-18.649
		C191.728,292.229,185.824,283.372,175.815,283.372z"/>
</g>
</svg>
